<?xml version="1.0" standalone="no"?>
<!DOCTYPE svg PUBLIC "-//W3C//DTD SVG 20010904//EN"
 "http://www.w3.org/TR/2001/REC-SVG-20010904/DTD/svg10.dtd">
<svg version="1.0" xmlns="http://www.w3.org/2000/svg"
 width="536.000000pt" height="536.000000pt" viewBox="0 0 536.000000 536.000000"
 preserveAspectRatio="xMidYMid meet">
<metadata>
Created by potrace 1.14, written by Peter Selinger 2001-2017
</metadata>
<g transform="translate(0.000000,536.000000) scale(0.100000,-0.100000)"
fill="#000000" stroke="none">
<path d="M2489 5356 c-2 -2 -39 -7 -82 -11 -43 -3 -90 -9 -105 -11 -316 -52
-554 -125 -797 -247 -140 -69 -155 -77 -213 -114 -211 -133 -340 -234 -501
-394 -246 -245 -451 -548 -584 -864 -28 -66 -104 -284 -112 -319 -2 -11 -13
-60 -24 -107 -27 -114 -49 -240 -58 -336 -10 -98 -10 -467 1 -553 6 -57 11
-90 31 -209 26 -155 95 -385 162 -546 48 -114 119 -252 198 -383 106 -177 296
-402 482 -572 314 -288 772 -530 1163 -615 119 -26 172 -37 205 -42 22 -3 58
-8 80 -12 130 -24 570 -21 721 5 468 78 802 211 1163 462 452 314 802 775 988
1301 46 131 107 367 118 460 4 30 9 63 11 75 19 93 26 478 10 631 -22 224
-101 542 -181 730 -60 141 -96 214 -153 315 -331 576 -838 998 -1461 1214
-160 56 -396 110 -568 131 -46 6 -489 15 -494 11z"/>
</g>
</svg>
